#!OML:ASF I:\Random Stuff\random\construction\7_22_03\Session 2\subj1.ASF
:FULLY-SPECIFIED
:DEGREES
432
root -2.35829 17.9006 0.61594 1.25818 77.794 -10.8429
lowerback 2.82205 -0.101662 2.55347
upperback -1.41632 0.0340964 1.68695
thorax -3.03966 -0.00948985 0.301036
lowerneck -24.3117 4.68622 5.32113
upperneck 37.5404 7.18429 -3.37713
head 18.6417 3.39277 -0.792151
rclavicle -1.44616e-014 1.31198e-014
rhumerus -5.99424 31.7086 -96.9831
rradius 57.6348
rwrist -37.3526
rhand -35.1856 4.69139
rfingers 7.12502
rthumb -8.32391 -25.1246
lclavicle -1.44616e-014 1.31198e-014
lhumerus -11.6765 -38.4616 93.7471
lradius 70.0232
lwrist 72.3823
lhand -19.1806 71.292
lfingers 7.12502
lthumb 7.13081 -101.152
rfemur -11.5578 36.1914 13.8324
rtibia 2.38542e-015
rfoot 5.53086 -33.8103
rtoes -15.2003
lfemur -13.1397 -7.09153 -13.0507
ltibia 16.6604
lfoot -13.5921 20.3853
ltoes -23.2348
433
root -2.35706 17.9021 0.623018 0.894385 77.8765 -11.171
lowerback 2.89417 -0.0255964 2.53275
upperback -1.46117 0.138274 1.66703
thorax -3.12517 0.0416489 0.286688
lowerneck -24.41 4.59104 5.21812
upperneck 37.5805 6.99691 -3.18387
head 18.6596 3.33181 -0.72452
rclavicle 1.93815e-015 2.46493e-014
rhumerus -6.00039 31.4643 -96.8444
rradius 57.6696
rwrist -37.1723
rhand -35.0875 5.03147
rfingers 7.12502
rthumb -8.22923 -24.7883
lclavicle 1.93815e-015 2.46493e-014
lhumerus -12.5197 -40.4988 93.6602
lradius 70.7122
lwrist 71.7112
lhand -17.8 70.5937
lfingers 7.12502
lthumb 8.46333 -100.404
rfemur -11.449 36.1262 13.9977
rtibia -1.23246e-014
rfoot 5.43235 -33.8386
rtoes -14.9975
lfemur -13.0622 -7.29483 -12.9416
ltibia 16.6086
lfoot -13.6145 20.4783
ltoes -23.2306
434
root -2.35525 17.9033 0.626348 0.761425 77.9277 -11.2682
lowerback 2.97497 0.0813376 2.53812
upperback -1.53491 0.283831 1.59371
thorax -3.2445 0.111598 0.20017
lowerneck -24.4423 4.48667 5.06729
upperneck 37.6644 6.77742 -2.86836
head 18.6745 3.27269 -0.599044
rclavicle 2.48978e-014 3.18055e-015
rhumerus -6.06847 31.1809 -96.7387
rradius 57.6899
rwrist -37.0132
rhand -35.0323 5.2142
rfingers 7.12502
rthumb -8.17596 -24.6076
lclavicle 2.48978e-014 3.18055e-015
lhumerus -13.4848 -42.8454 93.5622
lradius 71.4908
lwrist 70.9652
lhand -18.3194 70.8099
lfingers 7.12502
lthumb 7.9621 -100.64
rfemur -11.3599 36.086 14.0843
rtibia 1.47101e-014
rfoot 5.29546 -33.8655
rtoes -14.8841
lfemur -12.9676 -7.44097 -12.9025
ltibia 16.5258
lfoot -13.6242 20.5476
ltoes -23.1986
435
root -2.35069 17.9042 0.628316 0.500264 77.9593 -11.5412
lowerback 2.96924 0.198121 2.57512
upperback -1.6197 0.44242 1.55054
thorax -3.32592 0.188162 0.126018
lowerneck -24.3851 4.45238 4.89037
upperneck 37.7 6.64946 -2.48008
head 18.6391 3.25835 -0.41538
rclavicle -1.95803e-014 3.18055e-015
rhumerus -6.18538 30.9566 -96.6144
rradius 57.6903
rwrist -36.8373
rhand -35.099 5.30677
rfingers 7.12502
rthumb -8.2403 -24.5125
lclavicle -1.95803e-014 3.18055e-015
lhumerus -14.595 -45.0545 93.5725
lradius 72.3671
lwrist 70.4803
lhand -18.2547 71.3423
lfingers 7.12502
lthumb 8.02448 -101.17
rfemur -11.3422 36.0585 14.1605
rtibia 1.07344e-014
rfoot 5.16991 -33.8955
rtoes -14.6936
lfemur -12.8931 -7.5893 -12.829
ltibia 16.3933
lfoot -13.5718 20.6851
ltoes -23.1339
436
root -2.34295 17.9065 0.629349 0.610129 77.9909 -11.4575
lowerback 2.85695 0.311621 2.51558
upperback -1.67168 0.587487 1.51651
thorax -3.31393 0.261206 0.116562
lowerneck -24.3921 4.42719 4.6247
upperneck 37.7503 6.53758 -2.00964
head 18.6217 3.24789 -0.172639
rclavicle -1.17283e-014 -1.63003e-014
rhumerus -6.27 30.8194 -96.4291
rradius 57.6794
rwrist -36.8017
rhand -35.2888 5.68469
rfingers 7.12502
rthumb -8.42354 -24.1273
lclavicle -1.17283e-014 -1.63003e-014
lhumerus -15.7709 -46.9785 93.6761
lradius 73.2421
lwrist 70.2632
lhand -17.6572 72.3138
lfingers 7.12502
lthumb 8.60114 -102.119
rfemur -11.3551 36.0246 14.1288
rtibia -2.42517e-014
rfoot 5.04027 -33.9312
rtoes -14.296
lfemur -12.8286 -7.79785 -12.838
ltibia 16.2569
lfoot -13.543 20.8692
ltoes -23.0512
437
root -2.33282 17.9095 0.630649 0.852501 78.0201 -11.1775
lowerback 2.80082 0.447111 2.46803
upperback -1.71567 0.762534 1.43942
thorax -3.32426 0.348013 0.0543606
lowerneck -24.3776 4.38419 4.46799
upperneck 37.749 6.43128 -1.7397
head 18.5878 3.22611 -0.0431401
rclavicle 3.29486e-014 -1.59028e-014
rhumerus -6.37089 30.5679 -96.2512
rradius 57.7033
rwrist -37.0254
rhand -35.4163 6.16175
rfingers 7.12502
rthumb -8.54651 -23.6453
lclavicle 3.29486e-014 -1.59028e-014
lhumerus -17.2855 -48.8136 94.0228
lradius 74.187
lwrist 69.6545
lhand -17.7298 72.5278
lfingers 7.12502
lthumb 8.53114 -102.336
rfemur -11.2707 36.0005 14.1102
rtibia 2.54444e-014
rfoot 5.01098 -33.9428
rtoes -14.368
lfemur -12.6814 -8.04929 -12.9028
ltibia 16.1232
lfoot -13.5703 21.0466
ltoes -22.9941
438
root -2.32191 17.9105 0.633069 0.730453 78.062 -11.2339
lowerback 2.80709 0.595863 2.52682
upperback -1.77889 0.962368 1.34683
thorax -3.3873 0.443972 -0.0852839
lowerneck -24.2809 4.36625 4.47834
upperneck 37.7013 6.36727 -1.65008
head 18.5274 3.22043 -0.0200336
rclavicle 1.31695e-014 0
rhumerus -6.5276 30.1181 -96.1305
rradius 57.7943
rwrist -37.3108
rhand -35.3852 6.25223
rfingers 7.12502
rthumb -8.51652 -23.556
lclavicle 1.31695e-014 0
lhumerus -19.1058 -50.4077 94.5871
lradius 75.0793
lwrist 67.2808
lhand -18.3427 71.8838
lfingers 7.12502
lthumb 7.9396 -101.715
rfemur -11.1229 35.9718 14.2072
rtibia 1.15295e-014
rfoot 5.07014 -33.9253
rtoes -14.8025
lfemur -12.4899 -8.34006 -12.8899
ltibia 15.9822
lfoot -13.6525 21.229
ltoes -22.6968
439
root -2.30994 17.9101 0.633552 0.642082 78.1094 -11.2611
lowerback 2.72655 0.735501 2.57499
upperback -1.78881 1.14529 1.27058
thorax -3.34603 0.533263 -0.199781
lowerneck -24.2853 4.35139 4.46263
upperneck 37.7264 6.31913 -1.55469
head 18.5347 3.21609 0.0176744
rclavicle 2.6339e-015 2.5842e-015
rhumerus -6.59184 29.6069 -95.9679
rradius 57.9089
rwrist -37.3964
rhand -35.255 6.07712
rfingers 7.12502
rthumb -8.39092 -23.7362
lclavicle 2.6339e-015 2.5842e-015
lhumerus -20.8294 -51.5612 95.1218
lradius 75.8541
lwrist 63.4141
lhand -19.6738 70.3629
lfingers 7.12502
lthumb 6.65472 -100.238
rfemur -10.9815 35.9345 14.282
rtibia 1.19271e-014
rfoot 5.03718 -33.9271
rtoes -14.7837
lfemur -12.3213 -8.62744 -12.8944
ltibia 15.8661
lfoot -13.7348 21.4267
ltoes -22.2835
440
root -2.29621 17.9101 0.634487 0.64786 78.1544 -11.1954
lowerback 2.58827 0.881789 2.572
upperback -1.77033 1.33242 1.2082
thorax -3.24329 0.626888 -0.269856
lowerneck -24.3222 4.32181 4.41629
upperneck 37.7526 6.25327 -1.44528
head 18.5481 3.20152 0.0639142
rclavicle -2.94698e-014 -1.39149e-014
rhumerus -6.59031 29.0344 -95.7912
rradius 57.9821
rwrist -37.3383
rhand -35.181 6.05195
rfingers 7.12502
rthumb -8.31948 -23.7642
lclavicle -2.94698e-014 -1.39149e-014
lhumerus -22.6922 -52.6583 95.8317
lradius 76.4777
lwrist 59.6834
lhand -19.2169 70.4697
lfingers 7.12502
lthumb 7.09575 -100.331
rfemur -10.8329 35.8992 14.3377
rtibia -1.19271e-015
rfoot 4.90662 -33.9781
rtoes -14.3586
lfemur -12.1783 -8.80855 -12.9372
ltibia 15.7946
lfoot -13.7437 21.5737
ltoes -22.3164
441
root -2.28234 17.9111 0.636105 0.559714 78.2481 -11.2336
lowerback 2.47152 1.01117 2.55425
upperback -1.79049 1.49939 1.16558
thorax -3.19364 0.71045 -0.310281
lowerneck -24.3067 4.28017 4.37122
upperneck 37.7673 6.18313 -1.36277
head 18.5426 3.18293 0.0949197
rclavicle 2.03257e-014 -9.34288e-015
rhumerus -6.60557 28.482 -95.6407
rradius 58.0268
rwrist -37.4123
rhand -35.2119 6.18289
rfingers 7.12502
rthumb -8.34932 -23.6321
lclavicle 2.03257e-014 -9.34288e-015
lhumerus -24.9043 -53.5957 96.8457
lradius 76.9692
lwrist 56.1922
lhand -19.3902 69.9537
lfingers 7.12502
lthumb 6.92848 -99.8203
rfemur -10.6724 35.8171 14.4259
rtibia 1.98785e-014
rfoot 4.81456 -34.0334
rtoes -14.12
lfemur -12.0812 -8.93467 -12.9627
ltibia 15.7739
lfoot -13.7408 21.6357
ltoes -22.5811
442
root -2.26939 17.9111 0.636346 0.0967625 78.4537 -11.6089
lowerback 2.51227 1.09253 2.63619
upperback -1.88388 1.61486 1.13151
thorax -3.30743 0.764066 -0.398858
lowerneck -24.2661 4.18627 4.29013
upperneck 37.834 6.06967 -1.30585
head 18.5588 3.14028 0.110863
rclavicle 3.58806e-014 2.8625e-014
rhumerus -6.75206 27.9754 -95.5527
rradius 58.1228
rwrist -37.577
rhand -35.2201 6.1611
rfingers 7.12502
rthumb -8.35723 -23.6536
lclavicle 3.58806e-014 2.8625e-014
lhumerus -27.5719 -54.3769 98.2886
lradius 77.1874
lwrist 53.1479
lhand -21.2545 68.5887
lfingers 7.12502
lthumb 5.12858 -98.5066
rfemur -10.4239 35.6311 14.6385
rtibia -4.37326e-015
rfoot 4.84187 -34.0609
rtoes -14.3927
lfemur -11.998 -9.07631 -12.9272
ltibia 15.8066
lfoot -13.7327 21.5829
ltoes -22.8676
443
root -2.2568 17.9079 0.637447 -0.960849 78.7537 -12.5175
lowerback 2.65776 1.15204 2.84174
upperback -2.00739 1.71175 1.0981
thorax -3.50847 0.804 -0.557962
lowerneck -24.1148 4.05574 4.24477
upperneck 37.8649 5.87809 -1.22891
head 18.5231 3.0781 0.108977
rclavicle -3.62782e-015 -3.18055e-015
rhumerus -7.02326 27.4014 -95.5178
rradius 58.2692
rwrist -37.6319
rhand -35.2444 5.91768
rfingers 7.12502
rthumb -8.38066 -23.8961
lclavicle -3.62782e-015 -3.18055e-015
lhumerus -30.5825 -55.1905 100.126
lradius 77.087
lwrist 51.0798
lhand -22.719 67.407
lfingers 7.12502
lthumb 3.71446 -97.3544
rfemur -10.0485 35.3602 15.0376
rtibia -3.06128e-014
rfoot 4.92185 -34.0742
rtoes -14.9287
lfemur -11.8824 -9.20933 -12.7892
ltibia 15.8696
lfoot -13.7019 21.4111
ltoes -23.2388
444
root -2.24104 17.9039 0.637596 -1.94515 79.0768 -13.3362
lowerback 2.64979 1.21144 2.98062
upperback -2.04501 1.79773 1.08095
thorax -3.53596 0.842746 -0.658134
lowerneck -23.9648 3.904 4.15355
upperneck 37.8278 5.6264 -1.06657
head 18.4402 2.99659 0.139861
rclavicle -2.40529e-014 -3.39922e-014
rhumerus -7.15517 26.8407 -95.3658
rradius 58.4229
rwrist -37.5983
rhand -35.3081 5.6349
rfingers 7.12502
rthumb -8.44215 -24.1764
lclavicle -2.40529e-014 -3.39922e-014
lhumerus -32.533 -54.9856 101.074
lradius 76.5637
lwrist 46.178
lhand -20.3976 65.8497
lfingers 7.12502
lthumb 5.95597 -95.746
rfemur -9.63806 35.0621 15.4119
rtibia -3.18055e-015
rfoot 4.90193 -34.0903
rtoes -15.1894
lfemur -11.7552 -9.35871 -12.6965
ltibia 15.9665
lfoot -13.7214 21.2289
ltoes -23.506
445
root -2.21999 17.9011 0.635056 -2.69195 79.4485 -13.9101
lowerback 2.54047 1.29498 3.10577
upperback -2.03795 1.90817 1.03228
thorax -3.45789 0.895248 -0.781031
lowerneck -23.9503 3.66953 3.8672
upperneck 37.8383 5.25665 -0.731736
head 18.4006 2.86345 0.262714
rclavicle -1.55549e-014 2.98177e-015
rhumerus -7.20876 26.1695 -95.119
rradius 58.5826
rwrist -37.5501
rhand -35.1976 5.46792
rfingers 7.12502
rthumb -8.33545 -24.3476
lclavicle -1.55549e-014 2.98177e-015
lhumerus -34.6378 -54.8906 102.278
lradius 75.9128
lwrist 42.9216
lhand -21.3659 65.6434
lfingers 7.12502
lthumb 5.02106 -95.5639
rfemur -9.20959 34.7098 15.7076
rtibia 8.74653e-015
rfoot 4.76077 -34.1223
rtoes -15.1906
lfemur -11.6248 -9.49104 -12.6963
ltibia 16.0678
lfoot -13.7913 20.9861
ltoes -23.6345
